<?xml version="1.0" standalone="no"?><!DOCTYPE svg PUBLIC "-//W3C//DTD SVG 1.1//EN" "http://www.w3.org/Graphics/SVG/1.1/DTD/svg11.dtd"><svg t="1690977606690" class="icon" viewBox="0 0 1024 1024" version="1.1" xmlns="http://www.w3.org/2000/svg" p-id="6657" xmlns:xlink="http://www.w3.org/1999/xlink" width="200" height="200"><path d="M653.44 229.12l-165.12 165.12-288.64-241.92L252.48 64zM794.88 370.56L960 771.52l-88.32 52.8-241.92-288.64z" fill="#E0EBFE" p-id="6658"></path><path d="M832.576 378.112l79.36-79.36A131.2 131.2 0 0 0 950.72 205.44c0-35.2-13.76-68.32-38.816-93.344S853.76 73.28 818.56 73.28s-68.32 13.76-93.344 38.816l-79.296 79.328L264.672 34.4a32.064 32.064 0 0 0-39.68 13.184l-52.8 88.32a32 32 0 0 0 6.944 40.96l261.92 219.52-35.84 35.84-149.12 173.024-149.056-40.896a32.128 32.128 0 0 0-31.104 8.224l-34.56 34.56a32 32 0 0 0-0.032 45.216l96.768 97.056a103.456 103.456 0 0 0 18.88 112.96c1.344 1.6 2.816 3.072 4.448 4.416 19.328 18.4 44.544 28.48 71.296 28.48 14.624 0 28.8-3.456 41.92-9.344l96.96 96.736a31.872 31.872 0 0 0 45.248-0.032l34.56-34.56a31.968 31.968 0 0 0 8.224-31.104l-40.896-149.12 174.72-150.656 34.208-34.176 219.488 261.856a32.032 32.032 0 0 0 40.96 6.912l88.32-52.8a32 32 0 0 0 13.12-39.648l-156.992-381.216zM241.152 145.28l24.64-41.216 331.104 136.352-110.4 110.496L241.12 145.28zM111.296 631.872l98.56 27.04-33.184 38.528-65.376-65.568z m215.232 215.424l38.56-33.216 27.04 98.624-65.6-65.408z m223.456-276.96l-291.712 251.36c-14.944 13.12-39.36 12.096-53.568-2.08l-0.16-0.16-0.16-0.16a39.488 39.488 0 0 1-1.6-54.08l249.28-289.472 223.84-223.84 0.096-0.064 94.464-94.496c25.888-25.888 70.304-25.888 96.192 0a67.648 67.648 0 0 1 0 96.192l-94.368 94.4-0.288 0.288-222.016 222.08z m328.704 212.48L673.12 537.6l110.432-110.432 136.352 331.072-41.216 24.64z" fill="#5465CF" p-id="6659"></path></svg>
