<?xml version="1.0" standalone="no"?><!DOCTYPE svg PUBLIC "-//W3C//DTD SVG 1.1//EN" "http://www.w3.org/Graphics/SVG/1.1/DTD/svg11.dtd"><svg t="1692349126650" class="icon" viewBox="0 0 1024 1024" version="1.1" xmlns="http://www.w3.org/2000/svg" p-id="2390" xmlns:xlink="http://www.w3.org/1999/xlink" width="200" height="200"><path d="M957.908018 410.709692a31.028181 31.028181 0 0 1-31.028181-31.028181v-74.364208a31.028181 31.028181 0 1 1 62.056362 0v74.364208a31.028181 31.028181 0 0 1-31.028181 31.028181zM371.268539 209.026514a31.028181 31.028181 0 0 1-31.028181-31.028181V31.028181a31.028181 31.028181 0 0 1 62.056362 0v146.970152a31.028181 31.028181 0 0 1-31.028181 31.028181zM511.722772 209.026514a31.028181 31.028181 0 0 1-31.028181-31.028181V31.028181a31.028181 31.028181 0 0 1 62.056363 0v146.970152a31.028181 31.028181 0 0 1-31.028182 31.028181zM652.280433 209.026514a31.028181 31.028181 0 0 1-31.028181-31.028181V31.028181a31.028181 31.028181 0 0 1 62.056363 0v146.970152a31.028181 31.028181 0 0 1-31.028182 31.028181z" fill="#494949" p-id="2391"></path><path d="M752.08775 487.969863a31.028181 31.028181 0 0 1-31.028182-31.028181v-102.599853h-100.531307a31.028181 31.028181 0 0 1 0-62.056362H748.260941a35.165272 35.165272 0 0 1 35.061844 35.165272v129.490943a31.028181 31.028181 0 0 1-31.235035 31.028181zM748.260941 354.341829z" fill="#437DFF" p-id="2392"></path><path d="M301.661986 793.287166a31.028181 31.028181 0 0 1-31.028181-31.028181V615.185406a31.028181 31.028181 0 0 1 62.056362 0V762.258985a31.028181 31.028181 0 0 1-31.028181 31.028181zM441.70251 793.287166a31.028181 31.028181 0 0 1-31.028181-31.028181V513.206117a31.028181 31.028181 0 1 1 62.056362 0V762.258985a31.028181 31.028181 0 0 1-31.028181 31.028181zM581.846462 793.287166a31.028181 31.028181 0 0 1-31.028181-31.028181v-87.396044a31.028181 31.028181 0 0 1 62.056362 0v87.396044a31.028181 31.028181 0 0 1-31.028181 31.028181zM721.886987 793.287166a31.028181 31.028181 0 0 1-31.028182-31.028181v-186.169087a31.028181 31.028181 0 0 1 62.056363 0v186.169087a31.028181 31.028181 0 0 1-31.028181 31.028181z" fill="#E84842" p-id="2393"></path><path d="M286.044468 524.893399a31.028181 31.028181 0 0 1-21.926582-9.1016 31.028181 31.028181 0 0 1 0-43.853163l152.038088-152.141515a31.028181 31.028181 0 0 1 43.853163 0l127.215543 127.215543L715.577923 318.555994a31.028181 31.028181 0 1 1 43.853163 43.439453L609.151261 512.792408a31.028181 31.028181 0 0 1-43.95659 0L437.979128 385.680292 307.971049 515.791799a31.028181 31.028181 0 0 1-21.926581 9.1016z" fill="#FFE164" p-id="2394"></path><path d="M957.908018 442.979a31.028181 31.028181 0 0 1-31.028181-31.028181v-78.397871a31.028181 31.028181 0 0 1 62.056362 0v78.397871a31.028181 31.028181 0 0 1-31.028181 31.028181z" fill="#494949" p-id="2395"></path><path d="M931.016928 1023.92998a31.028181 31.028181 0 0 1-4.137091-62.056363V506.793626a31.028181 31.028181 0 0 1 62.056362 0v459.217082a57.919272 57.919272 0 0 1-57.919271 57.919272z" fill="#E84842" p-id="2396"></path><path d="M931.016928 1023.92998a31.028181 31.028181 0 0 1-4.137091-62.056363V565.540316a31.028181 31.028181 0 1 1 62.056362 0v400.16011a57.919272 57.919272 0 0 1-57.919271 58.229554z" fill="#FFE164" p-id="2397"></path><path d="M931.016928 1023.92998a31.028181 31.028181 0 0 1-4.137091-62.056363V617.253951a31.028181 31.028181 0 1 1 62.056362 0v348.446475a57.919272 57.919272 0 0 1-57.919271 58.229554z" fill="#437DFF" p-id="2398"></path><path d="M931.016928 1023.92998H92.532044A57.919272 57.919272 0 0 1 34.612773 965.700426V131.352634a57.919272 57.919272 0 0 1 57.919271-57.815845h838.484884a57.919272 57.919272 0 0 1 57.919271 57.815845v97.635343a31.028181 31.028181 0 0 1-62.056362 0v-93.084543H96.669135V961.873617h830.210702V682.619986a31.028181 31.028181 0 0 1 62.056362 0v283.08044a57.919272 57.919272 0 0 1-57.919271 58.229554z" fill="#494949" p-id="2399"></path></svg>